<svg width="67" height="42" viewBox="0 0 67 42" fill="none" xmlns="http://www.w3.org/2000/svg">
<rect width="67" height="42" rx="4" fill="#BF372A"/>
<path d="M21.0012 13.2248C21.0012 13.2778 20.9817 16.7622 21.1012 22.017C21.1422 23.8201 21.538 23.8482 24.3264 23.9659C27.1148 24.0836 32.3846 24.2845 35.8632 24.5349C39.3417 24.7852 40.8694 25.0789 41.7856 24.9805C42.7018 24.882 42.9604 24.3825 43.8586 22.2098C44.7568 20.037 46.2869 16.2062 48 12" stroke="white" stroke-width="3" stroke-linecap="round"/>
<path d="M56 12.0161C55.9669 12.0161 55.9338 12.0161 52.6583 13.7152C49.3828 15.4144 42.8658 18.8127 39.9239 19.6265C36.9821 20.4403 37.8127 18.5666 38.4778 17.3029C39.4924 15.3751 40.6962 13.9882 41.4263 12.7621C41.6378 12.4068 41.2387 12.465 38.693 12.3836C36.1473 12.3023 31.3935 12.0468 28.9045 12.0051C26.4155 11.9634 26.3353 12.1433 25.927 13.8264C25.5187 15.5095 24.7847 18.6905 24.4018 20.6783C24.019 22.6662 24.0096 23.3645 24 24" stroke="white" stroke-width="2" stroke-linecap="round"/>
<path d="M39.4545 24C39.4545 25.6547 39.4136 28.7994 39.2169 28.5112C39.097 28.3354 38.7915 28.3512 38.5905 28.394C38.3895 28.4367 38.2653 28.5701 38.1739 28.7202C37.9999 29.0061 37.9714 29.4243 38.0233 29.8478C38.0748 30.2683 38.4658 30.5892 38.8934 30.8902C39.1239 31.0523 39.4515 31.0069 39.6395 30.932C39.8274 30.857 39.8837 30.6957 39.9236 30.5163C39.9635 30.3369 39.9853 30.1442 39.9965 29.9283C40.0078 29.7124 40.0078 29.4792 39.7342 28.9883" stroke="white" stroke-width="3" stroke-linecap="round"/>
<path d="M24.7503 24C24.7503 24.4644 24.8517 26.023 24.8609 29.0862C24.8624 29.6032 24.6099 29.5126 24.4262 29.4436C24.0605 29.3061 23.6432 29.337 23.2726 29.5111C23.0986 29.5928 23.0284 29.7742 23.0068 30.0042C22.9572 30.5347 23.1867 31.0118 23.4303 31.3247C24.417 32.5918 27.4928 31.7348 27.784 31.4776C28.2244 31.0886 27.881 30.3641 27.7208 30.0121C27.0878 29.5111 26.5431 29.1813 26.1231 29.0782C25.879 29.0352 25.572 29.0109 24.7205 28.9831" stroke="white" stroke-width="3" stroke-linecap="round"/>
</svg>
